PathFileType	4	(X/Y/Z)	/Users/itak/Documents/Research/Walk-IL/dataset/trc/00584_00009.trc
DataRate	CameraRate	NumFrames	NumMarkers	Units	OrigDataRate	OrigDataStartFrame	OrigNumFrames
100.000000	100.000000	4	71	mm	100.000000	71	95
Frame#	Time	RFHD			LBHD			STRN			CLAV			RWPS			LSHO			LBAK			RFRA			RAEL			RAOL			RBHD			C7			RUPA			LTOE			RWTS			RSHO			LMT1			RBAK			LUPA			LWTS			RHIP			RKNE			LWPS			LFRA			LAEL			RTIP			T10			LHIP			LAOL			RANK			LTHI			L3			LFHD			LPSI			RPSI			RTOE			RMT5			RHEE			LHEE			RMT1			RTHI			LANK			LTIP			RHTS			RASI			LHPS			LASI			RHPS			RIFD			LKNE			LHTS			LMT5			LIFD			*53			*54			*55			*56			*57			*58			*59			*60			*61			*62			*63			*64			*65			*66			*67			*68			*69			*70			
		X1	Y1	Z1	X2	Y2	Z2	X3	Y3	Z3	X4	Y4	Z4	X5	Y5	Z5	X6	Y6	Z6	X7	Y7	Z7	X8	Y8	Z8	X9	Y9	Z9	X10	Y10	Z10	X11	Y11	Z11	X12	Y12	Z12	X13	Y13	Z13	X14	Y14	Z14	X15	Y15	Z15	X16	Y16	Z16	X17	Y17	Z17	X18	Y18	Z18	X19	Y19	Z19	X20	Y20	Z20	X21	Y21	Z21	X22	Y22	Z22	X23	Y23	Z23	X24	Y24	Z24	X25	Y25	Z25	X26	Y26	Z26	X27	Y27	Z27	X28	Y28	Z28	X29	Y29	Z29	X30	Y30	Z30	X31	Y31	Z31	X32	Y32	Z32	X33	Y33	Z33	X34	Y34	Z34	X35	Y35	Z35	X36	Y36	Z36	X37	Y37	Z37	X38	Y38	Z38	X39	Y39	Z39	X40	Y40	Z40	X41	Y41	Z41	X42	Y42	Z42	X43	Y43	Z43	X44	Y44	Z44	X45	Y45	Z45	X46	Y46	Z46	X47	Y47	Z47	X48	Y48	Z48	X49	Y49	Z49	X50	Y50	Z50	X51	Y51	Z51	X52	Y52	Z52	X53	Y53	Z53	X54	Y54	Z54	X55	Y55	Z55	X56	Y56	Z56	X57	Y57	Z57	X58	Y58	Z58	X59	Y59	Z59	X60	Y60	Z60	X61	Y61	Z61	X62	Y62	Z62	X63	Y63	Z63	X64	Y64	Z64	X65	Y65	Z65	X66	Y66	Z66	X67	Y67	Z67	X68	Y68	Z68	X69	Y69	Z69	X70	Y70	Z70	X71	Y71	Z71	

72	0.71	1044.042724609375	1551.099365234375	894.4795532226562	1044.336303710938	1565.868774414062	689.7141723632812	1024.58740234375	1167.394409179688	778.6091918945312	1021.3076171875	1280.032470703125	777.2619018554688	787.4847412109375	899.171630859375	951.1134033203125	1038.210815429688	1373.193969726562	586.1703491210938	907.4576416015625	1354.987426757812	583.820068359375	653.5816650390625	1037.410766601562	926.8931884765625	635.202880859375	1090.227416992188	921.31787109375	583.991943359375	1073.819213867188	881.3389892578125	930.9674682617188	1558.67578125	810.8441162109375	887.7001953125	1404.260986328125	684.9791870117188	771.2462768554688	1326.19873046875	879.3280029296875	1074.91162109375	36.8486213684082	761.26025390625	821.7477416992188	941.0084838867188	888.04443359375	840.6209106445312	1369.409301757812	840.5444946289062	990.6021118164062	42.65027236938477	756.8699951171875	764.6045532226562	1290.288452148438	702.3892822265625	1085.252807617188	1250.889526367188	516.1063842773438	1178.5029296875	1108.805419921875	742.2705688476562	796.6112060546875	826.7942504882812	855.378173828125	1073.968017578125	511.8148803710938	1004.694641113281	1239.358032226562	1046.842407226562	751.6286010742188	1172.9833984375	1055.8642578125	583.4862060546875	1134.324951171875	1066.578857421875	517.1505737304688	1052.629272460938	375.8250427246094	975.04638671875	814.9531860351562	1129.78271484375	626.2241821289062	1014.6982421875	837.3732299804688	538.7423095703125	1056.70703125	998.6729125976562	497.0855102539062	855.0313110351562	126.1577301025391	835.32568359375	1122.50048828125	596.30859375	647.051513671875	801.5399780273438	999.8604736328125	626.0022583007812	1137.745483398438	1559.329345703125	784.762451171875	824.78759765625	889.417724609375	569.0167846679688	750.8544921875	876.8905029296875	679.177001953125	1034.455688476562	75.67781829833984	940.2260131835938	935.5154418945312	92.81716156005859	930.2616577148438	852.648193359375	130.9588623046875	758.382568359375	827.3932495117188	48.85844421386719	616.7125244140625	1018.118957519531	77.27194213867188	868.1981201171875	894.7376098632812	726.5496826171875	920.0535888671875	915.1144409179688	41.45994186401367	606.09619140625	1027.203369140625	226.2460479736328	660.6253051757812	888.9755859375	923.4664306640625	927.3247680664062	892.50732421875	871.4847412109375	848.7007446289062	1251.89990234375	1064.10400390625	808.3568725585938	1046.513549804688	870.296875	620.8919677734375	852.3524780273438	876.2784423828125	972.6982421875	931.55810546875	854.2654418945312	917.6754760742188	1161.784545898438	442.3051452636719	729.85791015625	1224.086791992188	1126.234985351562	801.2650756835938	1028.959228515625	37.02631759643555	654.7651977539062	1220.508666992188	1121.8701171875	898.0206298828125	nan	nan	nan	nan	nan	nan	nan	nan	nan	nan	nan	nan	nan	nan	nan	nan	nan	nan	nan	nan	nan	nan	nan	nan	nan	nan	nan	nan	nan	nan	nan	nan	nan	nan	nan	nan	nan	nan	nan	nan	nan	nan	nan	nan	nan	nan	nan	nan	nan	nan	nan	nan	nan	nan	
73	0.72	1072.583984375	1551.491821289062	915.5775756835938	1073.159790039062	1566.00537109375	710.7799682617188	1052.862548828125	1168.056884765625	800.4755859375	1049.22216796875	1280.686401367188	799.4776000976562	799.9238891601562	897.6475830078125	972.4180297851562	1068.488647460938	1375.423583984375	609.0890502929688	937.8519287109375	1355.720581054688	603.8103637695312	672.09716796875	1040.454711914062	942.0795288085938	655.6536254882812	1093.839233398438	935.4415283203125	605.4271240234375	1078.65576171875	893.6688232421875	959.6494750976562	1559.312866210938	831.8069458007812	916.6067504882812	1404.234008789062	705.1267700195312	796.777587890625	1327.020874023438	896.678466796875	1073.614379882812	37.05046463012695	760.3806762695312	838.0140380859375	937.5889282226562	910.31591796875	867.11767578125	1369.48388671875	859.541015625	990.2867431640625	43.36243057250977	756.5924682617188	794.3331298828125	1289.714599609375	720.1619262695312	1118.935546875	1253.655395507812	541.0848999023438	1210.548583984375	1116.993041992188	770.3054809570312	826.4100952148438	828.2295532226562	873.67626953125	1108.885986328125	524.9453125	1033.548217773438	1273.951293945312	1057.7158203125	780.6314697265625	1209.625366210938	1062.492065429688	611.8434448242188	1171.771850585938	1071.088256835938	544.9451293945312	1099.936767578125	385.0872497558594	1010.803894042969	846.031982421875	1129.842163085938	645.0429077148438	1045.452026367188	837.2406005859375	557.53271484375	1096.459594726562	1000.585205078125	523.708984375	932.2388916015625	109.9617309570312	880.362060546875	1145.669189453125	590.8267211914062	662.4517211914062	832.8468017578125	1000.084289550781	644.5306396484375	1166.438232421875	1559.309326171875	805.924072265625	855.7949829101562	890.27978515625	587.5906982421875	781.903564453125	876.8555908203125	697.47119140625	1112.35693359375	79.81974029541016	991.0519409179688	1012.829345703125	86.2529296875	978.414306640625	931.0616455078125	112.8705825805664	803.2265014648438	828.4611206054688	57.54951095581055	616.5459594726562	1097.7939453125	77.59846496582031	918.8458862304688	924.7802124023438	732.1375732421875	940.261474609375	915.44677734375	45.99980163574219	606.2432861328125	1034.9638671875	225.3871154785156	665.581298828125	902.8308715820312	917.72021484375	952.0086059570312	922.5770874023438	872.4221801757812	868.4085693359375	1284.759155273438	1075.489990234375	837.5570068359375	1076.661743164062	869.3744506835938	640.4179077148438	862.97705078125	872.7755126953125	996.72900390625	943.4681396484375	846.9205932617188	944.7589721679688	1178.812377929688	433.3383178710938	741.5596313476562	1254.2861328125	1136.379150390625	830.172119140625	1028.116821289062	37.05456161499023	654.8268432617188	1250.277221679688	1131.990356445312	926.9466552734375	nan	nan	nan	nan	nan	nan	nan	nan	nan	nan	nan	nan	nan	nan	nan	nan	nan	nan	nan	nan	nan	nan	nan	nan	nan	nan	nan	nan	nan	nan	nan	nan	nan	nan	nan	nan	nan	nan	nan	nan	nan	nan	nan	nan	nan	nan	nan	nan	nan	nan	nan	nan	nan	nan	
74	0.73	1101.085815429688	1552.585693359375	936.8123168945312	1101.85546875	1566.753662109375	731.9911499023438	1081.3154296875	1169.786499023438	822.3190307617188	1077.248779296875	1282.333740234375	821.6956787109375	813.4353637695312	897.5107421875	992.9502563476562	1098.159790039062	1378.451538085938	631.8998413085938	967.8047485351562	1357.209716796875	624.2685546875	691.3737182617188	1044.207275390625	956.8792114257812	676.7144165039062	1098.041015625	949.2950439453125	627.6111450195312	1083.90478515625	905.7041625976562	988.2765502929688	1560.590454101562	853.011962890625	945.4363403320312	1404.874267578125	725.63720703125	822.514404296875	1328.481323242188	914.1925659179688	1072.140380859375	37.13533401489258	759.55419921875	855.1757202148438	935.823974609375	932.2344970703125	893.7783813476562	1370.195556640625	878.8011474609375	990.3202514648438	44.53580093383789	756.4440307617188	824.0615234375	1289.830078125	738.4529418945312	1151.369750976562	1257.43896484375	565.2433471679688	1241.407958984375	1125.275146484375	796.7466430664062	856.5075073242188	830.6909790039062	892.1934814453125	1141.157836914062	536.326171875	1060.302368164062	1306.884033203125	1068.333740234375	807.8693237304688	1244.389038085938	1069.483154296875	638.5174560546875	1207.231201171875	1076.31494140625	571.1541748046875	1144.932861328125	393.7081909179688	1044.901977539062	877.176513671875	1130.721923828125	664.2169189453125	1075.953125	837.6281127929688	576.5780029296875	1133.887817382812	1003.762634277344	549.143310546875	1009.910339355469	95.49667358398438	925.7025756835938	1168.8408203125	586.0623779296875	677.301513671875	864.4595336914062	1001.178466796875	663.3792724609375	1195.045166015625	1559.986328125	827.1934814453125	886.9039306640625	892.0134887695312	606.5538940429688	812.9260864257812	877.9493408203125	716.181640625	1189.276977539062	84.55325317382812	1041.007690429688	1090.151611328125	80.32524108886719	1026.185180664062	1009.829650878906	97.28960418701172	848.4370727539062	831.2877197265625	69.18576812744141	616.8468017578125	1176.605834960938	79.50022888183594	968.79541015625	954.1160278320312	737.794677734375	960.0278930664062	916.9368896484375	52.45603179931641	606.6380615234375	1043.826416015625	226.1537170410156	670.3700561523438	917.6163330078125	913.8099975585938	976.5150756835938	952.8654174804688	874.248291015625	888.3236083984375	1316.15185546875	1086.447509765625	865.0215454101562	1106.756225585938	869.0444946289062	660.1138305664062	874.5778198242188	870.7661743164062	1019.844482421875	956.1590576171875	841.5030517578125	970.9246215820312	1196.4169921875	425.4137878417969	752.5379028320312	1283.473510742188	1146.213500976562	857.425048828125	1027.586791992188	37.34323883056641	655.090087890625	1278.945678710938	1141.743530273438	954.1827392578125	nan	nan	nan	nan	nan	nan	nan	nan	nan	nan	nan	nan	nan	nan	nan	nan	nan	nan	nan	nan	nan	nan	nan	nan	nan	nan	nan	nan	nan	nan	nan	nan	nan	nan	nan	nan	nan	nan	nan	nan	nan	nan	nan	nan	nan	nan	nan	nan	nan	nan	nan	nan	nan	nan	
75	0.74	1129.54052734375	1554.233764648438	958.2048950195312	1130.401245117188	1568.012817382812	753.3716430664062	1109.974365234375	1172.338623046875	844.1260375976562	1105.43701171875	1284.735717773438	843.8798217773438	828.2432250976562	898.4462890625	1012.755187988281	1127.392456054688	1381.9990234375	654.5762329101562	997.4346313476562	1359.352294921875	645.1094360351562	711.6309814453125	1048.514892578125	971.3972778320312	698.6022338867188	1102.70947265625	962.9886474609375	650.7320556640625	1089.466674804688	917.5855712890625	1016.83837890625	1562.352294921875	874.4832763671875	974.2842407226562	1406.096435546875	746.46533203125	848.6298217773438	1330.56298828125	931.9625854492188	1070.60205078125	37.04209899902344	758.8284301757812	873.4899291992188	935.452392578125	953.8614501953125	920.7491455078125	1371.497924804688	898.3533325195312	990.8931884765625	46.31843948364258	756.4738159179688	853.8134155273438	1290.61328125	757.2728271484375	1182.702758789062	1261.882690429688	588.5615234375	1271.206665039062	1133.377685546875	821.5025024414062	886.963134765625	833.9111938476562	911.0415649414062	1171.356811523438	545.4341430664062	1085.00830078125	1338.196044921875	1078.270141601562	833.3757934570312	1277.369750976562	1076.4326171875	663.4772338867188	1240.807739257812	1081.853515625	595.7019653320312	1187.6962890625	401.3132019042969	1077.11181640625	908.3141479492188	1132.322509765625	683.7384033203125	1106.130615234375	838.52197265625	595.8621826171875	1169.040283203125	1007.78564453125	573.2575073242188	1086.883666992188	83.20793914794922	971.0521240234375	1192.305297851562	582.2335205078125	691.9107666015625	896.2021484375	1003.014343261719	682.59716796875	1223.549194335938	1561.260986328125	848.5906982421875	918.0003051757812	894.445068359375	625.984130859375	843.8878173828125	879.9761352539062	735.4050903320312	1264.643432617188	89.72629547119141	1089.310424804688	1166.843872070312	75.17982482910156	1073.046997070312	1087.418212890625	84.671630859375	893.6851806640625	836.5467529296875	84.00785827636719	617.81494140625	1253.563598632812	82.93674468994141	1017.256225585938	983.0325317382812	743.2266845703125	979.5867919921875	920.0731811523438	61.15639495849609	607.3859252929688	1054.444458007812	228.7711029052734	675.4283447265625	933.5523681640625	911.3671875	1000.890319824219	983.3793334960938	876.713623046875	908.3508911132812	1346.156982421875	1096.667724609375	890.76708984375	1136.799682617188	869.3531494140625	679.895751953125	887.3466186523438	869.8721923828125	1042.0869140625	969.8886108398438	837.6099853515625	996.251953125	1215.152954101562	418.822998046875	763.3709106445312	1311.85498046875	1155.51220703125	882.8939208984375	1027.61328125	38.10219573974609	655.5753173828125	1306.610717773438	1151.146118164062	979.6128540039062	nan	nan	nan	nan	nan	nan	nan	nan	nan	nan	nan	nan	nan	nan	nan	nan	nan	nan	nan	nan	nan	nan	nan	nan	nan	nan	nan	nan	nan	nan	nan	nan	nan	nan	nan	nan	nan	nan	nan	nan	nan	nan	nan	nan	nan	nan	nan	nan	nan	nan	nan	nan	nan	nan	
